{"accessors" : [{"bufferView" : 0, "byteOffset" : 0, "componentType" : 5123, "count" : 14784, "type" : "SCALAR", "max" : [10400], "min" : [0]}, {"bufferView" : 1, "byteOffset" : 0, "componentType" : 5126, "count" : 10401, "type" : "VEC3", "max" : [0.20036792755126953, 0.13682739436626434, -0.5058935880661011], "min" : [-0.19182267785072327, -0.13641849160194397, -0.8742765188217163], "name" : "POSITION"}], "asset" : {"generator" : "Aspose.3D 22.7", "version" : "2.0"}, "buffers" : [{"uri" : "data:application/octet-stream;base64,", "byteLength" : 206984}], "bufferViews" : [{"buffer" : 0, "byteOffset" : 0, "byteLength" : 29568, "target" : 34963}, {"buffer" : 0, "byteOffset" : 29572, "byteLength" : 177408, "byteStride" : 12, "target" : 34962}], "meshes" : [{"primitives" : [{"attributes" : {"POSITION" : 1}, "indices" : 0, "mode" : 4}], "name" : ""}], "nodes" : [{"mesh" : 0, "name" : ""}], "scene" : 0, "scenes" : [{"nodes" : [0]}]}