{"accessors" : [{"bufferView" : 0, "byteOffset" : 0, "componentType" : 5123, "count" : 14784, "type" : "SCALAR", "max" : [10400], "min" : [0]}, {"bufferView" : 1, "byteOffset" : 0, "componentType" : 5126, "count" : 10401, "type" : "VEC3", "max" : [0.11311076581478119, 0.25867173075675964, -0.6172969937324524], "min" : [-0.11315377056598663, -0.22501564025878906, -0.9643147587776184], "name" : "POSITION"}], "asset" : {"generator" : "Aspose.3D 22.7", "version" : "2.0"}, "buffers" : [{"uri" : "data:application/octet-stream;base64,", "byteLength" : 206984}], "bufferViews" : [{"buffer" : 0, "byteOffset" : 0, "byteLength" : 29568, "target" : 34963}, {"buffer" : 0, "byteOffset" : 29572, "byteLength" : 177408, "byteStride" : 12, "target" : 34962}], "meshes" : [{"primitives" : [{"attributes" : {"POSITION" : 1}, "indices" : 0, "mode" : 4}], "name" : ""}], "nodes" : [{"mesh" : 0, "name" : ""}], "scene" : 0, "scenes" : [{"nodes" : [0]}]}