{"accessors" : [{"bufferView" : 0, "byteOffset" : 0, "componentType" : 5125, "count" : 164808, "type" : "SCALAR", "max" : [137432], "min" : [0]}, {"bufferView" : 1, "byteOffset" : 0, "componentType" : 5126, "count" : 137433, "type" : "VEC3", "max" : [37.345680236816406, 26.219419479370117, 5], "min" : [-37.654319763183594, -19.1247501373291, -5], "name" : "POSITION"}], "asset" : {"generator" : "Aspose.3D 22.7", "version" : "2.0"}, "buffers" : [{"uri" : "data:application/octet-stream;base64,", "byteLength" : 2636936}], "bufferViews" : [{"buffer" : 0, "byteOffset" : 0, "byteLength" : 659232, "target" : 34963}, {"buffer" : 0, "byteOffset" : 659236, "byteLength" : 1977696, "byteStride" : 12, "target" : 34962}], "meshes" : [{"primitives" : [{"attributes" : {"POSITION" : 1}, "indices" : 0, "mode" : 4}], "name" : ""}], "nodes" : [{"mesh" : 0, "name" : ""}], "scene" : 0, "scenes" : [{"nodes" : [0]}]}